<?xml version="1.0" encoding="utf-8"?>
<!-- Uploaded to: SVG Repo, www.svgrepo.com, Generator: SVG Repo Mixer Tools -->
<svg width="800px" height="800px" viewBox="0 0 1024 1024" class="icon"  version="1.1" xmlns="http://www.w3.org/2000/svg"><path d="M720.732417 241.454392c-11.109033-70.953307-83.146148-112.824428-151.462188-102.41987-67.105788 10.20586-111.686429 73.987969-108.507259 138.366173 3.395932 68.876008 79.714089 121.187814 145.48318 111.433541a6.304151 6.304151 0 0 0 4.299106-2.456632c71.097814-6.972499 121.47683-72.940288 110.187161-144.923212z m-398.895588 4.570057c-38.764205 5.708056-75.902697 41.545979-73.21124 82.152658 3.522376 52.998218 54.641994 92.322391 107.224752 77.528409a6.972499 6.972499 0 0 0 2.149553-1.029618c47.95851-7.351832 67.84639-43.89423 61.144843-91.202455-6.737674-47.777876-52.149235-74.078287-97.307908-67.448994z m260.872621 190.67798c-53.431742-13.077952-108.362751 26.806188-119.796927 78.88317-12.572174 57.207007 28.287393 125.938507 90.768932 131.339483a7.062816 7.062816 0 0 0 6.19577-2.420504c50.920919 3.648821 101.877966-26.408792 111.397414-79.76828 11.000653-61.885445-28.648662-113.366332-88.565189-128.033869z m-310.565224-13.114079c-67.033534 6.394468-119.29115 64.089188-86.957541 130.32793 0.903173 1.878601 2.348251 2.962409 3.937837 3.450123 40.642805 86.415636 177.997425 68.31604 186.288556-30.870469 4.750692-56.719293-46.694068-108.290497-103.268852-102.907584z m504.693326 25.66819a29.407328 29.407328 0 0 0-36.163065-22.073559c-16.762899 4.461677-24.403747 24.457937-18.081532 39.793822 5.346787 13.023761 21.062005 18.551183 34.067702 17.196423 16.546138-1.71603 23.879906-17.539628 21.387148-32.496181a4.678438 4.678438 0 0 0-1.210253-2.420505z m-151.67895 242.267248c-33.200656-13.926935-58.074053 37.246873-25.613999 53.702693 28.558345 14.486902 56.249643-18.334421 42.105946-40.751186-3.197234-5.075835-8.544021-9.609766-16.491947-12.951507zM816.830073 297.866606c-44.797403-7.442149-82.188784 55.996754-32.134912 79.750216 39.125474 18.58731 64.829791-8.128561 67.033534-35.657288 1.571522-19.689181-8.814973-39.793822-34.898622-44.092928z m21.820671-126.26365v-0.812856c0.108381-7.586657-3.323678-12.86119-10.115543-16.112614l-0.740602-0.361269c-13.764363-6.557039-26.788125 10.494876-20.917498 22.868351 6.755737 14.252077 31.520754 11.488366 31.773643-5.581612z m-412.85865 4.985518c-5.491295-2.438568-10.892272-1.643776-15.588774 0.88511a15.299758 15.299758 0 0 0-9.338814 8.959481 13.944998 13.944998 0 0 0 1.30057 12.337349l-0.343206-0.397396c0.126444 0.289016 0.361269 0.41546 0.487714 0.704475 0.451587 0.722539 0.9393 1.427014 1.499268 2.095362 5.220343 7.622784 14.6856 9.555575 23.319938 6.033199 5.274533-2.149553 8.887227-7.911799 9.411068-13.439221 0.758666-7.785355-3.883646-14.143696-10.747764-17.178359z m241.255693 224.799873c-10.187797 0-19.364039 6.015135-20.41172 16.889344-0.88511 9.411067 6.66542 20.393657 16.87128 20.393656s19.382102-6.015135 20.41172-16.889343c0.88511-9.411067-6.647357-20.393657-16.87128-20.393657z m234.680591 25.324984a16.835153 16.835153 0 0 0-2.944346-5.455168 17.720263 17.720263 0 0 0-12.481857-6.376405l0.090317-0.10838-2.059235-0.180635c-16.40163-1.481204-26.5533 18.009279-16.184868 30.653707 1.011554 1.137999 2.041172 2.294061 2.673393 2.872092 7.532467 6.954436 18.009279 9.447194 26.571363 2.185679 6.66542-5.671929 8.688529-16.040361 4.335233-23.59089z m-33.471609 18.713754c-0.072254-0.072254-0.072254-0.126444-0.10838-0.180635l-1.065745-1.210253 1.174125 1.390888z" fill="#1ca538" /><path d="M345.337402 382.042372l-15.426202-36.054685c5.220343 13.077952 10.350368 25.035968 15.426202 36.054685z m-85.259574 160.006209l27.528727 27.835806a715.168869 715.168869 0 0 0-27.528727-27.835806z m136.758525 63.131824c18.334421-156.610277 79.226375-262.877666 216.40036-360.16751 0 0-0.848983 0.361269-2.402442 1.101872-16.220995 7.658911-111.957382 57.58634-191.075376 204.081073a347.812098 347.812098 0 0 0-14.378521 30.256311c-11.596747-12.969571-34.465099-42.647851-60.042972-98.391716a14581.19353 14581.19353 0 0 1 51.227999 121.11556c-15.390076 42.756231-26.535236 91.834677-34.609607 141.527281a27569.53229 27569.53229 0 0 1-74.331175-74.800826c47.037274 50.126127 65.118806 84.862178 70.844925 97.759495-20.592355 143.008485-17.214486 283.41583-17.214486 283.41583s43.280072-42.1782 49.20489-42.449152c5.924818-0.270952 48.626859 32.785196 48.626859 32.785196s-41.202773-122.921907-45.303181-253.502725c44.923848-75.053714 130.996278-94.45388 145.79026-97.289845-74.186668 12.481857-119.182769 39.88414-146.007021 65.245251 0.325142-16.997724 1.30057-33.977385 3.269488-50.686095z m144.959339-14.956552l-2.221806 0.397396c0.740602-0.108381 1.481204-0.270952 2.221806-0.397396z" fill="#65320b" /></svg>